<svg width="120" height="120" version="1.1" id="Layer_1" xmlns="http://www.w3.org/2000/svg" xmlns:xlink="http://www.w3.org/1999/xlink" x="0px" y="0px"
	 width="100%" viewBox="0 0 1024 1024" enable-background="new 0 0 1024 1024" xml:space="preserve">
<path fill="#000000" opacity="1.000000" stroke="none" 
	d="
M533.531372,1.000011 
	C533.168884,1.503974 532.337769,2.007926 530.946350,2.851596 
	C541.195251,6.383327 547.906189,14.322726 556.374146,19.704933 
	C560.980164,22.632544 566.525085,22.795380 571.535950,24.568670 
	C583.944214,28.959816 596.563782,32.545013 609.661316,34.260098 
	C619.980530,35.611374 624.120850,42.925579 627.073669,51.825714 
	C634.037842,72.817001 640.302124,94.080467 651.237366,113.556038 
	C654.976257,120.215134 657.499146,127.415993 659.224731,135.002548 
	C662.156494,147.891617 658.834351,159.535248 653.142578,170.664963 
	C645.840210,184.943741 645.454163,199.422256 650.606262,214.234451 
	C653.032532,221.210007 657.316711,227.128906 662.123291,232.762955 
	C674.607422,247.396301 688.679993,260.460236 703.924683,271.958710 
	C718.111450,282.659271 730.136475,295.550964 743.423462,307.125977 
	C745.458496,308.898834 747.054016,311.015839 748.506531,313.263733 
	C754.371338,322.339996 761.512695,330.554504 766.538025,340.211456 
	C767.585510,342.224274 769.257263,344.070312 771.027161,345.523224 
	C781.564331,354.173340 785.880554,365.962463 788.717957,378.766724 
	C792.724304,396.845764 801.071899,412.780640 813.890442,426.243866 
	C818.601196,431.191467 823.639771,435.831635 828.264343,440.855469 
	C835.746826,448.983917 844.125427,455.984222 853.563599,461.687500 
	C857.812256,464.254852 860.595947,468.323242 863.848572,471.784698 
	C869.024719,477.293274 875.321960,481.371948 880.670532,486.569489 
	C882.915222,488.750885 884.895386,491.306519 886.560669,493.964691 
	C894.178589,506.125336 900.098938,519.194885 906.524292,531.988525 
	C909.153748,537.223877 909.669434,542.837830 907.876892,548.531311 
	C906.230103,553.761658 907.681335,558.790100 909.011536,563.766235 
	C910.013794,567.515259 909.784790,570.869141 907.857666,574.328735 
	C904.205017,580.886108 903.838318,587.588867 906.147461,594.955322 
	C910.826904,609.883789 914.781067,625.039734 919.028503,640.103516 
	C919.944641,643.352905 920.032227,646.693420 919.928711,650.027222 
	C919.501282,663.793335 920.513184,677.500061 919.479431,691.368713 
	C918.353394,706.475403 919.672913,722.006653 923.749634,736.934937 
	C930.495850,761.638489 925.606384,784.503723 914.090393,806.838623 
	C909.336487,816.058838 904.233398,825.362183 902.004883,835.756531 
	C897.986389,854.499695 889.420349,871.115112 877.742126,886.134277 
	C868.407715,898.138916 858.297607,909.519043 848.563660,921.195984 
	C839.207764,932.419373 829.157715,943.012207 819.784363,954.221985 
	C809.698792,966.283569 795.897400,972.567078 780.127747,973.815857 
	C775.113159,974.212952 770.258484,975.327148 765.316772,976.001831 
	C751.191284,977.930420 737.097046,975.603394 722.984314,975.439270 
	C715.841003,975.356323 708.708923,974.458130 701.567017,974.002869 
	C699.228027,973.853760 696.776367,973.918579 694.693604,974.989990 
	C686.989807,978.952942 679.135132,977.040466 671.256653,975.957764 
	C667.377991,975.424805 664.786316,972.586548 661.688721,970.754456 
	C655.925110,967.345459 649.624512,965.410645 643.570679,962.798950 
	C632.478516,958.013672 621.120789,953.490845 611.400818,946.025574 
	C600.787598,937.874268 588.328735,933.505066 576.125061,928.645264 
	C571.904541,926.964478 567.612549,928.118530 563.476990,929.781372 
	C556.451965,932.605957 549.319580,934.239685 541.564941,933.117981 
	C536.100098,932.327454 531.240967,930.190857 528.149841,926.139099 
	C519.915466,915.345276 509.283051,912.979431 496.734131,915.349487 
	C492.975830,916.059265 489.151428,916.787537 485.351257,916.821106 
	C479.652679,916.871582 476.135162,919.765442 474.441711,924.702576 
	C472.254852,931.078247 468.055328,935.017822 461.867310,937.249084 
	C455.944672,939.384583 451.606659,943.732971 448.588776,948.916748 
	C442.716187,959.004089 434.052948,964.530579 422.929901,967.072144 
	C416.615234,968.515015 410.363098,970.250610 404.426880,973.068604 
	C400.727417,974.824768 396.455536,974.708374 392.639038,973.523071 
	C385.779663,971.392639 378.798065,971.764160 372.442413,973.888550 
	C360.815063,977.774780 348.821014,977.654175 336.944946,978.820618 
	C323.816559,980.109985 310.692108,980.152527 297.811188,976.508728 
	C285.018463,972.889893 274.024445,966.932312 268.171967,954.136902 
	C264.839905,946.851929 258.893738,942.007507 252.427750,937.810486 
	C246.232300,933.788940 240.448318,929.521729 236.261810,923.217102 
	C233.672150,919.317200 229.753769,916.567749 225.815201,914.016479 
	C211.805542,904.941406 203.439240,891.514282 197.471008,876.460083 
	C193.788010,867.170166 190.890045,857.609009 184.196762,849.805237 
	C180.836914,845.888000 177.954178,841.550171 175.900635,836.769104 
	C174.216965,832.849365 170.693878,830.723511 167.650513,828.235046 
	C157.349609,819.812134 146.915192,811.870972 133.403824,808.609131 
	C124.937508,806.565247 116.815346,802.742188 108.855949,799.036133 
	C97.380775,793.693054 94.907310,782.511169 93.205788,771.603333 
	C90.519310,754.381165 91.555611,737.058777 93.549232,719.794556 
	C95.155777,705.882263 98.045998,692.183289 100.304008,678.379578 
	C100.768089,675.542664 100.651825,672.794312 100.336990,669.947021 
	C99.603203,663.310730 99.667984,656.637939 100.513397,650.004150 
	C101.131737,645.152161 101.047310,640.445618 99.481064,635.702332 
	C93.151207,616.532776 94.250641,598.360901 106.800644,581.649841 
	C109.466919,578.099548 112.394501,575.118958 116.215004,572.908813 
	C122.658295,569.181458 128.173279,564.609436 131.413071,557.565247 
	C134.861588,550.067261 142.802292,547.024414 148.221283,541.477295 
	C157.741379,531.732178 169.339554,525.450989 181.628296,520.074707 
	C187.908539,517.327148 193.501541,513.385742 198.672806,508.839386 
	C201.438034,506.408325 204.710052,504.723022 208.181076,503.443573 
	C213.835220,501.359436 217.675140,497.550903 221.120377,492.450104 
	C227.947617,482.342010 232.305862,471.138275 235.824234,459.802338 
	C240.676804,444.167755 245.950882,428.373596 243.226181,411.392059 
	C242.281998,405.507568 242.880798,399.436890 242.489944,393.440338 
	C241.766281,382.337891 236.730179,372.257690 235.657745,361.256714 
	C234.272400,347.045654 234.115295,333.134338 239.188782,319.372253 
	C243.516251,307.633759 243.621613,295.212555 242.579910,282.828369 
	C241.546509,270.543243 239.916382,258.332703 238.216797,246.122406 
	C236.644913,234.829529 238.532135,223.622665 242.345673,213.158463 
	C248.214127,197.055695 250.788589,180.794678 250.051010,163.685516 
	C249.613159,153.528687 251.681091,143.315231 255.128845,133.764740 
	C258.363800,124.803680 265.035767,117.684082 270.596039,110.006866 
	C278.594543,98.963120 285.810089,87.294319 294.439850,76.778633 
	C309.278900,58.696712 326.376984,43.301682 349.631073,36.490536 
	C356.827423,34.382717 363.766815,31.692003 370.012024,27.247416 
	C373.355347,24.868055 377.400391,23.440371 381.205658,21.756950 
	C383.595825,20.699556 384.915741,19.163877 385.004242,16.474749 
	C385.159668,11.751229 386.384766,7.366084 389.438416,3.604071 
	C390.466431,2.337601 389.079559,1.958828 388.204498,1.176589 
	C436.354218,1.000000 484.708466,1.000000 533.531372,1.000011 
M506.279297,805.100708 
	C505.644287,805.289246 504.870422,805.307068 504.395721,805.692871 
	C499.889404,809.355652 496.467957,809.762085 492.032196,804.593140 
	C487.268127,799.041321 475.120636,799.992126 470.974213,805.346924 
	C478.435303,806.502625 479.317047,811.877625 479.288544,817.937317 
	C479.232178,829.912964 479.166077,841.890625 479.343750,853.863892 
	C479.400909,857.715515 478.966217,861.050110 474.197540,863.389709 
	C482.911041,865.363647 490.533112,864.635559 498.103180,864.483032 
	C500.550018,864.433838 501.273529,862.630676 500.055389,860.614990 
	C498.470612,857.992615 498.769409,855.195740 498.691345,852.389160 
	C498.354370,840.273254 499.535614,828.126465 498.036255,816.040833 
	C497.768921,813.886108 499.100800,813.147400 500.378876,812.092224 
	C502.893829,810.016113 506.178101,808.624878 507.662079,805.254028 
	C516.911072,807.711426 518.198425,809.301392 518.279236,819.078613 
	C518.361816,829.070190 518.312134,839.062927 518.299988,849.055115 
	C518.294189,853.802612 518.957764,858.661377 515.152100,863.467834 
	C524.113831,865.262512 532.094543,865.025696 541.500854,863.837402 
	C537.079712,859.761353 537.693665,855.682251 537.689392,851.743591 
	C537.677673,840.918701 537.757080,830.093140 537.662842,819.269043 
	C537.580322,809.789001 534.115784,803.699463 526.443787,801.958069 
	C519.867676,800.465515 512.839661,799.976257 506.279297,805.100708 
M429.161194,145.730133 
	C421.399902,150.323959 414.569458,156.064682 408.015472,162.244614 
	C401.872589,168.036957 396.817566,175.030426 389.209991,179.247238 
	C379.231903,184.778046 371.454224,192.616013 365.706909,202.456161 
	C358.005615,215.641754 351.762115,229.354126 351.379456,244.979126 
	C351.209564,251.917648 355.881409,256.131500 362.818420,256.736359 
	C370.792633,257.431610 376.810913,253.561676 382.641968,248.963364 
	C387.898102,253.280899 391.923157,259.002563 399.163666,259.223846 
	C400.369659,256.825348 399.182373,255.191406 398.149017,253.802841 
	C396.323425,251.349594 395.380157,248.500900 393.993835,245.856079 
	C392.815643,243.608322 393.373993,242.318848 395.570160,241.050385 
	C400.614838,238.136658 405.346222,234.773315 409.291046,230.385880 
	C410.412506,229.138580 411.459229,227.250397 413.913910,228.160843 
	C415.449463,235.157562 416.062164,242.248489 414.837219,249.347534 
	C411.758636,267.189941 403.481476,281.609619 387.648712,291.387848 
	C378.918030,296.779877 371.736938,304.125305 367.424225,313.547974 
	C361.401947,326.705719 361.023621,340.651154 362.156891,354.930420 
	C363.746460,374.958618 369.090729,393.420898 381.759247,409.319214 
	C386.071838,414.731262 390.108032,420.249298 395.538849,424.883484 
	C402.660828,430.960754 411.183807,436.570374 411.775146,447.626678 
	C412.022125,452.244965 413.076385,456.824890 413.247986,461.441406 
	C413.717804,474.080688 412.647552,486.653717 411.411896,499.232605 
	C410.649292,506.996338 405.112091,512.727844 397.230530,513.383423 
	C389.642639,514.014587 381.960083,514.492859 374.560333,516.129150 
	C366.811218,517.842712 358.914612,518.694519 351.144562,519.916931 
	C344.996643,520.884155 338.724487,521.795349 332.610107,522.958313 
	C319.062744,525.535034 305.669434,528.923218 292.216431,531.994202 
	C282.252716,534.268616 272.218414,536.282593 262.352386,538.923767 
	C250.436172,542.113708 238.712418,546.018311 226.814178,549.281067 
	C218.189285,551.646118 209.968491,555.125732 201.469833,557.802429 
	C192.872772,560.510071 184.529572,563.923462 175.963791,566.737122 
	C170.252426,568.613159 163.965179,569.767334 158.569763,574.057861 
	C161.329391,574.932251 163.419296,574.776001 165.489517,574.158325 
	C177.082886,570.699219 189.017807,568.705872 200.762070,565.901245 
	C218.132477,561.753052 235.442383,557.352112 252.791702,553.114624 
	C255.998611,552.331360 259.256683,551.353210 262.514496,551.257385 
	C272.997253,550.948792 283.271271,548.809265 293.412781,546.792358 
	C307.992828,543.892517 322.745605,542.158020 337.323792,539.293762 
	C345.242188,537.737976 353.731415,539.026794 361.617188,537.377869 
	C382.020477,533.111511 402.808746,532.855713 423.393463,531.023010 
	C447.057587,528.916138 470.943604,528.984680 494.739136,528.774292 
	C513.043152,528.612366 531.351868,528.791504 549.678101,529.413025 
	C576.557678,530.324707 603.386414,531.196899 630.227295,533.313354 
	C650.218872,534.889648 669.966370,539.000793 690.086792,538.868103 
	C697.646606,538.818237 704.262451,543.235474 711.942749,542.951965 
	C716.669250,542.777527 721.665161,543.283447 726.155823,544.700989 
	C735.733765,547.724365 745.667480,549.119324 755.445312,550.281250 
	C768.129028,551.788452 780.546814,554.480042 792.849548,557.361694 
	C804.527405,560.096863 816.264648,562.824890 827.827209,566.150330 
	C837.680481,568.984192 847.986633,569.926270 857.742371,573.370178 
	C860.336731,574.286072 863.590210,575.738647 866.994873,573.836548 
	C865.059021,572.023560 863.346741,570.855225 860.913269,570.184631 
	C853.783752,568.220215 846.743225,565.892578 839.763428,563.435364 
	C830.461548,560.160522 821.327332,556.397705 811.979614,553.267212 
	C800.250732,549.339111 788.383728,545.852051 776.442261,542.571777 
	C764.671387,539.338379 752.952209,535.804688 740.983276,533.543091 
	C732.189758,531.881531 723.541504,529.575623 714.833679,527.660706 
	C707.305054,526.005188 699.640198,524.649292 692.134338,522.681213 
	C688.584351,521.750366 684.881714,520.458191 681.038452,520.299744 
	C673.605347,519.993347 673.771362,519.906250 672.625427,512.514221 
	C669.965454,495.357544 663.706177,479.450409 654.231079,465.021271 
	C646.267639,452.894012 636.816223,441.903778 624.779907,433.431641 
	C623.097046,432.247131 621.069824,431.189789 621.231506,428.461304 
	C621.782166,419.163879 621.449463,409.936859 620.604126,400.610474 
	C619.142517,384.485382 614.554199,369.434906 607.767395,354.930359 
	C606.592896,352.420166 606.196228,350.784546 609.009827,349.217987 
	C615.432556,345.642029 619.467773,339.539795 624.206848,334.222961 
	C627.187195,330.879211 629.770203,327.177124 632.469055,323.588898 
	C633.396851,322.355377 633.950073,320.957642 633.064331,319.406708 
	C632.309021,318.084259 631.309875,317.753448 629.735840,317.994995 
	C613.505310,320.486206 598.330688,325.924805 585.830017,336.630493 
	C578.442627,342.957153 570.820679,347.188721 561.112427,347.291565 
	C540.641418,347.508514 520.150940,347.733398 499.740356,346.076660 
	C494.807526,345.676239 489.700409,346.242554 484.899536,344.809753 
	C460.253754,337.454254 445.353149,319.319824 443.788116,293.781769 
	C443.439423,288.091492 443.253113,281.957123 446.524750,276.876495 
	C461.634705,253.411743 461.872711,228.488266 454.335632,202.679062 
	C453.547272,199.979492 451.419861,197.570786 451.794861,194.683151 
	C452.845245,186.595123 454.135864,178.238113 458.580750,171.451080 
	C464.546143,162.342300 476.629639,152.361511 492.730072,156.745071 
	C501.784027,159.210144 510.324493,162.561752 516.602295,170.077698 
	C528.696716,184.557404 527.956909,201.692352 526.936829,218.929626 
	C526.733093,222.372299 524.460388,225.755051 526.258606,229.518570 
	C531.117554,228.496078 530.483398,224.035126 532.061218,221.254501 
	C544.597168,199.162766 539.174927,165.728653 520.051697,148.327713 
	C503.978455,133.702026 485.635406,127.638367 464.080261,131.201111 
	C451.509094,133.278931 440.419098,138.721680 429.161194,145.730133 
M237.439484,577.937256 
	C224.904861,587.106812 215.986176,599.267761 209.508438,613.127075 
	C198.544724,636.584473 198.093063,661.587402 202.149292,686.330688 
	C207.763992,720.580688 226.658386,745.630554 258.868896,759.968628 
	C276.707977,767.909424 295.285095,769.970764 314.695435,769.161743 
	C334.694977,768.328125 352.775757,762.189697 370.303772,753.288818 
	C374.224213,751.297974 375.800079,748.849915 375.742920,744.351196 
	C375.491089,724.524719 375.735535,704.692017 375.515930,684.864807 
	C375.436096,677.658997 378.106781,672.730347 384.910858,670.134644 
	C386.584503,669.496094 388.737457,668.887939 388.122864,666.452820 
	C387.636566,664.526123 385.748962,664.327148 384.025879,664.326782 
	C359.030792,664.321411 334.035675,664.321228 309.040588,664.344543 
	C307.559906,664.345886 305.727631,664.272217 305.557007,666.296387 
	C305.405579,668.092468 307.058319,668.890503 308.438080,669.316101 
	C311.608948,670.294312 314.884064,670.928528 318.080170,671.832031 
	C326.710785,674.272034 330.367462,678.732056 330.282227,687.607178 
	C330.075958,709.088440 330.836365,730.570801 329.914001,752.059692 
	C329.722015,756.532654 327.847412,758.565979 324.457672,759.697754 
	C320.227020,761.110291 315.870209,762.376587 311.310944,762.293945 
	C286.801788,761.849915 270.805664,750.358643 260.855194,727.043396 
	C253.059326,708.776550 251.708801,689.141663 250.767700,669.597595 
	C250.169067,657.166016 250.924728,644.726746 252.564758,632.358582 
	C254.446411,618.168335 256.952484,604.102295 264.053314,591.461365 
	C270.175720,580.562195 278.027222,571.474121 290.432190,566.882812 
	C300.865845,563.020996 311.513062,561.715149 322.301788,562.850403 
	C334.595520,564.144043 344.845062,568.994385 349.914490,581.728271 
	C352.726379,588.791321 356.671112,595.447327 360.549805,602.024658 
	C362.751007,605.757324 364.351166,610.110596 368.398834,612.782227 
	C371.486145,610.200623 371.087677,606.751343 370.543396,603.882446 
	C369.284851,597.248474 369.204193,590.547852 369.815918,583.995911 
	C370.758728,573.897156 368.820831,566.365845 357.488037,564.173523 
	C355.740417,563.835510 354.148407,562.740784 352.453644,562.074280 
	C337.645355,556.250610 322.224182,554.719360 306.450623,555.318726 
	C281.527557,556.265747 258.156952,561.855286 237.439484,577.937256 
M553.605530,669.823181 
	C553.288696,668.533752 552.938232,667.251587 552.659973,665.953857 
	C548.760925,647.774048 538.561951,633.523621 523.373718,623.574097 
	C504.854950,611.442871 483.982452,608.256287 462.287781,612.417480 
	C432.795685,618.074280 410.373322,639.615601 404.223450,668.586548 
	C401.758423,680.198792 401.808441,691.943115 403.235291,703.772766 
	C406.207123,728.411743 418.005676,747.206360 439.777100,759.175049 
	C456.182037,768.193481 473.897308,770.547241 492.402649,767.692810 
	C514.908142,764.221375 532.862122,753.575073 544.400940,733.758423 
	C555.830750,714.129211 557.577637,692.735840 553.605530,669.823181 
M617.595703,634.479431 
	C620.243774,620.704834 628.593689,615.450806 640.562439,619.828796 
	C648.957214,622.899597 650.799866,630.252014 652.217468,637.632996 
	C654.558960,649.824646 652.638000,662.223022 653.450562,674.495544 
	C653.717041,678.519897 651.907715,679.684570 648.458984,680.142883 
	C636.769897,681.696350 625.151489,683.828613 613.931458,687.415405 
	C600.958069,691.562683 588.008301,695.985840 578.355530,706.520081 
	C565.989807,720.015076 565.043518,733.619751 572.976929,748.338318 
	C584.286316,769.320190 617.448792,775.388000 636.491028,760.950623 
	C642.559509,756.349731 648.364075,751.400696 654.245850,746.646118 
	C655.655212,747.573730 655.838257,748.985657 656.531189,750.074097 
	C659.181335,754.237305 661.153931,758.770447 665.508545,761.833130 
	C673.991394,767.799377 683.272034,767.682129 693.019287,767.192810 
	C701.856628,766.749146 708.529968,762.828613 714.537292,756.988770 
	C715.900635,755.663391 716.881104,754.214661 716.113525,752.111328 
	C715.263672,749.782471 713.417847,749.166138 711.324707,749.388794 
	C700.027771,750.590332 696.670410,742.985657 696.561462,733.556519 
	C696.248169,706.419312 698.069031,679.247131 695.488281,652.146729 
	C694.308716,639.760071 688.781677,629.593018 678.814453,622.134766 
	C666.989990,613.286682 653.026855,610.485657 638.804810,610.608704 
	C628.305176,610.699524 617.590576,611.779785 607.494019,615.450989 
	C596.784729,619.345032 586.183289,623.555664 580.102600,634.173523 
	C575.727112,641.813904 573.673157,649.957397 577.717712,658.318176 
	C581.090027,665.289246 587.672302,668.700989 594.887939,668.211304 
	C603.361389,667.636108 610.296448,663.216919 613.784912,654.780945 
	C616.364136,648.543823 615.609009,641.676270 617.595703,634.479431 
M756.054321,761.499695 
	C765.653076,767.218811 776.104858,769.265076 787.150330,768.632507 
	C801.776917,767.794922 813.512634,761.215210 822.951721,750.281738 
	C824.317139,748.700134 826.079834,746.445496 824.105713,744.539124 
	C822.205811,742.704407 820.509399,744.912476 819.016479,746.119141 
	C813.724243,750.396240 807.951538,753.487671 800.923706,753.339539 
	C794.229370,753.198364 788.355774,749.380737 787.138000,743.849243 
	C786.362122,740.324463 785.550903,736.766418 785.561035,733.036804 
	C785.654907,698.546753 785.617371,664.056274 785.618713,629.565979 
	C785.619019,622.670471 785.620361,622.671204 792.742920,622.656799 
	C800.074036,622.641968 807.406067,622.688416 814.735718,622.576294 
	C817.383484,622.535767 819.984070,621.805359 819.810059,618.431091 
	C819.656921,615.460754 817.108459,615.385803 814.939209,615.391663 
	C807.445557,615.411987 799.945679,615.388123 792.460815,615.691711 
	C786.499634,615.933594 785.727173,615.204346 786.245300,609.398376 
	C787.209290,598.596497 786.555908,587.762695 786.571960,576.942627 
	C786.574219,575.417358 786.231689,573.864502 784.461121,573.356201 
	C783.204102,572.995422 782.273865,573.658142 781.397888,574.557922 
	C775.368103,580.750610 769.602112,587.173340 763.930237,593.699402 
	C755.113831,603.843506 745.351318,612.775269 731.865540,616.443787 
	C730.047241,616.938416 728.049133,617.554016 726.930359,619.680725 
	C729.002930,622.400208 732.058777,621.963867 734.720581,621.941528 
	C739.778442,621.899231 741.478394,623.835205 741.440002,629.091614 
	C741.197388,662.247314 741.332458,695.405640 741.296204,728.563049 
	C741.282104,741.498169 744.918579,752.792419 756.054321,761.499695 
M358.398041,859.105957 
	C354.073090,855.672241 348.776733,854.622131 343.632507,853.441589 
	C335.244751,851.516724 326.754791,850.040405 318.321289,848.310059 
	C314.549133,847.536194 312.974518,845.388794 314.391144,841.307190 
	C321.378540,843.469604 328.399780,842.634155 335.353729,842.620667 
	C344.175964,842.603516 352.237823,835.756226 354.808533,827.391052 
	C356.718933,821.174438 354.371399,815.705139 352.795532,810.235291 
	C353.353333,809.758667 353.586884,809.384094 353.846649,809.364990 
	C355.833069,809.218567 357.825745,809.160522 359.814270,809.038818 
	C364.840973,808.731262 365.850372,806.946533 363.775238,801.686462 
	C360.905151,801.902039 358.576782,803.598206 356.084198,804.824768 
	C353.282928,806.203369 350.161438,807.197754 347.478363,805.515808 
	C339.749908,800.670837 331.212646,800.877808 322.793030,801.446655 
	C311.972351,802.177795 301.954498,808.105469 302.173279,822.224426 
	C302.288757,829.679688 305.521576,835.075134 310.615936,839.715454 
	C300.158539,852.813232 299.934845,855.225769 308.519440,863.804993 
	C307.181976,865.025879 305.702820,866.131836 304.519531,867.494751 
	C294.887939,878.587219 298.231110,890.205811 312.333710,894.199036 
	C320.943848,896.637085 329.726959,896.094666 338.502808,894.936035 
	C345.152588,894.058167 350.928650,891.102905 356.145050,887.219543 
	C366.432953,879.560791 367.610199,866.877136 358.398041,859.105957 
M690.277832,801.897278 
	C688.289490,801.732971 686.301453,801.431885 684.312683,801.426941 
	C672.870789,801.398804 660.239075,808.050598 661.146240,822.875488 
	C661.576233,829.901184 664.472412,835.120300 669.635559,839.321411 
	C660.249512,854.260071 660.249512,854.260071 667.632324,863.875122 
	C665.878418,865.795044 664.040161,867.696106 662.326111,869.703125 
	C655.264038,877.972229 658.127869,888.480530 668.095032,892.838745 
	C677.413879,896.913330 687.075439,896.161560 696.556213,895.219360 
	C704.138123,894.465881 711.422058,891.531616 717.030762,885.784546 
	C726.188293,876.400940 727.227051,862.910278 713.522949,856.830505 
	C709.917053,855.230713 705.995239,854.232483 702.128357,853.354553 
	C694.059387,851.522644 685.933105,849.942139 677.824829,848.285522 
	C674.427551,847.591431 672.967285,845.786255 674.172485,841.811890 
	C680.630188,842.958801 687.060364,842.688232 693.482971,842.643188 
	C705.970886,842.555725 714.728821,833.530334 714.738953,821.213867 
	C714.742432,816.942932 713.060791,813.240601 711.398010,808.780151 
	C714.742493,808.780151 717.542847,808.822998 720.341064,808.764404 
	C722.081299,808.728027 723.966858,808.500122 723.468750,806.058044 
	C723.098389,804.242737 721.703796,803.177856 719.775696,803.477661 
	C718.313782,803.705017 716.796692,804.076904 715.497742,804.755127 
	C712.121704,806.517883 709.058228,806.158020 705.498047,804.836426 
	C700.935486,803.142761 696.400330,800.432617 690.277832,801.897278 
M426.164764,857.257019 
	C422.897949,855.665466 422.702118,852.671997 422.700378,849.610291 
	C422.694977,840.114380 422.741943,830.618225 422.701111,821.122559 
	C422.657898,811.073242 417.941803,804.525940 408.267639,802.354614 
	C398.709839,800.209412 389.165344,800.544739 379.995239,804.743835 
	C377.342529,805.958496 374.990051,807.423767 373.278564,809.738159 
	C368.718475,815.904480 371.543945,823.906921 378.567413,824.581543 
	C383.014526,825.008850 386.452759,823.255737 387.771271,818.724915 
	C388.696350,815.546082 389.086426,812.211975 390.002502,809.029968 
	C390.992401,805.591614 393.789124,804.491943 397.040344,804.774963 
	C400.060577,805.037903 402.607483,806.461548 403.093170,809.738464 
	C403.699646,813.830322 404.145142,817.973083 404.259766,822.104980 
	C404.463989,829.469055 404.342773,829.516663 397.013123,830.255066 
	C389.421722,831.019897 382.410034,833.592590 375.957336,837.470154 
	C367.786163,842.380493 365.566040,854.660828 371.566223,860.146912 
	C378.971436,866.917603 389.693390,867.781311 398.400299,862.572327 
	C400.534973,861.295349 401.822357,858.879395 404.835907,858.198608 
	C407.914368,862.532776 411.671326,865.879517 417.749908,865.771545 
	C423.279572,865.673340 428.049072,864.756653 431.469055,859.438721 
	C429.598694,858.643005 428.241760,858.065735 426.164764,857.257019 
M636.618042,864.671326 
	C641.826965,864.192993 647.297485,865.771973 653.341248,862.997375 
	C649.288147,859.930115 649.716370,856.323547 649.626526,852.827881 
	C649.297546,840.028809 650.509583,827.197510 648.674988,814.426758 
	C647.735901,807.889343 643.963623,803.768555 637.866211,802.108032 
	C632.871643,800.747864 627.663818,800.318909 621.585693,804.012817 
	C630.392395,806.951111 629.268188,813.380310 629.288147,819.310303 
	C629.321838,829.309387 629.310486,839.308777 629.280029,849.307922 
	C629.265503,854.072876 630.044067,858.972412 626.694641,863.180481 
	C629.709839,865.488892 632.811035,864.329834 636.618042,864.671326 
M572.683716,831.523804 
	C572.228516,823.537292 574.321045,815.658203 573.666138,807.656616 
	C573.407898,804.501648 572.550232,801.609009 568.737061,802.424622 
	C562.929749,803.666809 557.221313,805.415894 551.536621,807.163574 
	C549.377747,807.827332 548.453186,809.654602 550.551697,811.253296 
	C553.246704,813.306274 553.267944,815.966187 553.263000,818.837280 
	C553.243042,830.319946 553.162292,841.804260 553.333801,853.284424 
	C553.390381,857.069336 553.756409,860.747925 549.567078,863.947388 
	C558.829651,864.784363 566.966248,865.181702 575.383911,864.006287 
	C574.816711,859.511353 572.344177,856.151550 572.575134,851.981812 
	C572.933533,845.511230 572.678162,839.006653 572.683716,831.523804 
M588.808777,809.097168 
	C587.851196,812.153198 591.138367,814.036377 590.845337,817.069763 
	C589.707275,828.847473 590.517517,840.670593 590.350525,852.473694 
	C590.299377,856.084900 590.743591,859.739685 587.352844,863.130432 
	C595.382019,865.483826 602.814148,864.741882 610.175354,864.337585 
	C612.372192,864.216980 612.676453,862.377808 611.503601,860.615723 
	C609.532104,857.653809 609.616333,854.346802 609.630310,851.004089 
	C609.673523,840.690674 609.841919,830.372070 609.569214,820.065857 
	C609.460327,815.951599 610.681702,813.078003 614.092590,810.872314 
	C615.769043,809.788208 617.818787,808.680298 617.473999,805.993591 
	C614.651062,805.443298 613.317444,808.527954 610.723694,808.060974 
	C609.289124,807.090210 609.078186,805.393616 608.528992,803.854980 
	C608.044861,802.498718 606.943665,801.215820 605.563049,801.818481 
	C600.153748,804.180054 593.843994,804.345764 588.808777,809.097168 
M460.660370,859.196167 
	C459.414215,857.244324 459.634552,855.041260 459.632538,852.895691 
	C459.623718,843.587219 459.706360,834.278381 459.646484,824.970398 
	C459.610748,819.425293 458.609436,813.661865 464.077484,809.726990 
	C464.161499,809.666443 463.917084,809.149475 463.641876,808.231689 
	C460.594788,809.460388 459.287476,807.547058 458.649841,804.859192 
	C457.933838,801.841003 456.150909,801.410461 453.431305,802.306030 
	C449.509583,803.597473 445.494476,804.602478 441.550507,805.830139 
	C438.634216,806.737976 437.324738,808.646851 439.050537,811.498291 
	C440.353424,813.650940 440.366028,815.890564 440.360626,818.218262 
	C440.339111,827.526672 440.434692,836.836853 440.279602,846.142944 
	C440.184662,851.837463 441.453796,857.673523 438.182983,863.710022 
	C445.952271,865.303589 453.219543,864.939819 460.395660,864.275513 
	C463.604614,863.978516 462.411133,861.613464 460.660370,859.196167 
M260.220428,817.093933 
	C258.957092,813.283203 258.421692,809.123657 254.721848,805.519836 
	C253.055328,809.529541 251.354034,812.914612 250.244675,816.483704 
	C249.044128,820.346191 246.755981,821.514160 242.847031,821.446777 
	C239.595337,821.390625 235.844666,820.012207 232.945190,823.199463 
	C234.217331,826.347717 237.134720,827.589233 239.372528,829.442078 
	C242.744019,832.233765 244.358444,834.970459 242.572098,839.690308 
	C241.487076,842.557190 239.108505,845.898132 241.354660,849.615540 
	C244.836014,849.028687 247.169373,846.729858 249.706787,845.019104 
	C253.705704,842.322876 257.042847,842.279541 260.982910,845.361328 
	C263.378204,847.234863 265.675385,850.097351 269.736206,849.744446 
	C270.247803,845.248169 268.502930,841.395081 267.298889,837.510254 
	C266.437744,834.731689 266.781158,832.901489 269.260651,831.092834 
	C272.150330,828.985107 274.651642,826.345032 277.573151,823.708801 
	C274.177124,820.192200 270.319214,821.496582 266.875427,821.408875 
	C263.977844,821.335022 261.570129,820.997925 260.220428,817.093933 
M785.126038,832.575745 
	C787.031250,830.971130 788.978699,829.413330 790.827454,827.746033 
	C792.128235,826.572876 794.225281,825.649780 793.497620,823.411194 
	C792.794617,821.248413 790.709351,821.369690 788.861206,821.345154 
	C787.861511,821.331909 786.839661,821.207581 785.865356,821.365356 
	C781.157471,822.127686 778.833069,819.838196 777.609802,815.516052 
	C776.637085,812.079102 775.618591,808.538940 772.591553,805.782837 
	C769.782227,808.597351 769.501587,812.186829 768.641968,815.442383 
	C767.491943,819.797729 765.213013,821.820251 760.457703,821.443604 
	C756.964172,821.166809 753.151672,820.466187 749.470947,823.391907 
	C752.721497,826.017334 755.707458,828.555115 758.830627,830.910889 
	C761.238892,832.727478 762.043091,834.644348 761.104309,837.754089 
	C759.893799,841.763733 757.891663,845.683899 758.261719,850.411499 
	C762.293945,849.107300 765.156006,846.480896 768.305603,844.402161 
	C771.505432,842.290283 774.367249,842.334290 777.524292,844.496033 
	C780.210266,846.335327 782.668945,848.688477 785.904236,849.381836 
	C788.104187,847.848938 787.126587,846.105286 786.859863,844.307678 
	C786.304443,840.565247 784.303894,837.100525 785.126038,832.575745 
M553.636047,778.377563 
	C552.740784,779.635559 552.401306,781.024048 552.327209,782.578552 
	C552.056824,788.248352 554.923279,792.234924 560.324219,793.510925 
	C565.651001,794.769348 570.942505,792.286438 573.248108,787.446655 
	C575.271790,783.198669 573.629089,778.106995 569.204468,774.913940 
	C564.881714,771.794312 559.167786,772.879150 553.636047,778.377563 
z"/>
<path fill="#000000" opacity="1.000000" stroke="none" 
	d="
M503.510010,431.503479 
	C516.307190,443.319763 529.615540,453.601410 546.590576,458.010956 
	C550.496704,459.025604 554.462463,458.759857 558.397888,459.436371 
	C573.169800,461.975800 583.995850,474.072540 584.356262,488.923737 
	C584.508057,495.178467 586.119141,501.400299 584.687012,508.595184 
	C547.955627,507.312225 511.188019,506.910858 473.765839,507.455444 
	C476.081238,496.619171 475.976837,486.338470 475.536652,476.102234 
	C475.046387,464.699860 473.941467,453.323059 473.042328,441.940002 
	C472.909088,440.253510 472.319214,438.269928 474.569672,437.854828 
	C483.606720,436.187866 490.570496,430.848206 496.962280,425.167358 
	C500.532715,426.192291 501.169006,429.436584 503.510010,431.503479 
z"/>
<path fill="#000000" opacity="1.000000" stroke="none" 
	d="
M646.769287,494.402924 
	C647.897888,496.655548 649.037964,498.523651 649.700500,500.548035 
	C650.627197,503.379974 653.984802,506.514191 651.544189,509.109253 
	C648.382935,512.470520 645.333191,516.285339 638.864807,514.706299 
	C628.969299,512.290588 618.539490,512.559570 608.486816,510.400269 
	C605.942810,509.853821 604.504761,509.249969 604.652344,506.456055 
	C605.411560,492.086334 603.171326,478.045898 599.959412,464.112183 
	C599.857971,463.672089 600.102783,463.152161 600.231140,462.409332 
	C609.691406,460.027222 618.016541,462.525421 625.950012,467.832489 
	C635.728333,474.373627 641.461426,483.951721 646.769287,494.402924 
z"/>
<path fill="#000000" opacity="1.000000" stroke="none" 
	d="
M435.643585,483.917389 
	C436.028809,469.835236 434.054291,456.378723 433.088898,442.892395 
	C434.718781,442.129547 435.760376,442.954712 436.783203,443.806824 
	C438.952728,445.614288 440.869873,447.905701 443.319000,449.165985 
	C455.384216,455.374817 455.839661,466.598206 456.353149,477.975067 
	C456.739868,486.542969 455.213837,494.815796 453.359253,503.101196 
	C452.559021,506.676147 451.111786,508.877716 447.045624,508.330688 
	C442.618378,507.735077 438.617004,511.877411 433.703644,509.502411 
	C434.348175,501.163391 434.995819,492.783997 435.643585,483.917389 
z"/>
<path fill="#000000" opacity="1.000000" stroke="none" 
	d="
M498.325684,752.193726 
	C490.377899,764.111572 467.688782,764.472839 459.751282,752.640259 
	C455.636322,746.505981 453.863159,739.297852 452.713837,732.057129 
	C449.868286,714.129700 448.820190,696.014709 449.865265,677.952820 
	C450.693481,663.638916 450.574310,649.091553 455.611023,635.231750 
	C461.543488,618.907166 479.891022,612.790894 494.357208,622.858704 
	C499.517639,626.450134 501.434906,632.476379 503.138214,638.180725 
	C505.802826,647.104492 506.868011,656.342957 507.331055,665.652649 
	C507.826294,675.609558 508.944672,685.564392 508.292969,695.532349 
	C507.246490,711.538452 507.700928,727.761292 502.342682,743.221680 
	C501.313599,746.190857 499.794556,748.990295 498.325684,752.193726 
z"/>
<path fill="#000000" opacity="1.000000" stroke="none" 
	d="
M626.797913,694.712769 
	C634.003967,690.155945 641.799744,688.555542 649.649414,687.058838 
	C652.427002,686.529236 653.281250,687.770203 653.279114,690.234741 
	C653.266418,705.030151 653.277588,719.825684 653.220581,734.620911 
	C653.216980,735.560303 652.896851,736.615845 652.400940,737.417542 
	C648.211304,744.190430 633.988403,749.951599 626.190796,748.404053 
	C616.938843,746.567993 612.768372,739.741089 611.255066,731.727722 
	C609.016357,719.872070 610.930664,708.574463 619.977417,699.452454 
	C621.898071,697.515808 624.214783,696.275940 626.797913,694.712769 
z"/>
<path fill="#000000" opacity="1.000000" stroke="none" 
	d="
M334.174377,890.388916 
	C327.499390,892.168396 321.589203,890.639709 315.935333,888.208557 
	C311.277100,886.205688 309.262726,880.760376 310.328461,875.008789 
	C312.630981,862.582336 311.137634,864.095459 322.427917,866.528870 
	C329.519257,868.057312 336.801514,868.673279 343.720764,871.033020 
	C346.462280,871.967957 349.109406,872.886719 349.251556,876.478027 
	C349.412750,880.550049 349.479340,884.613220 345.370178,887.027588 
	C342.069183,888.967224 338.587830,890.519165 334.174377,890.388916 
z"/>
<path fill="#000000" opacity="1.000000" stroke="none" 
	d="
M320.417175,831.057129 
	C319.259399,824.219727 319.170197,817.819763 320.823792,811.468628 
	C321.969513,807.067993 324.763794,804.680237 329.358612,804.600403 
	C333.975342,804.520142 335.560913,807.676636 336.531403,811.455139 
	C338.193512,817.926453 338.889923,824.473999 337.056152,830.980591 
	C335.963104,834.858948 335.236053,839.303345 329.524994,839.356323 
	C324.281372,839.404907 322.500732,838.003662 320.417175,831.057129 
z"/>
<path fill="#000000" opacity="1.000000" stroke="none" 
	d="
M693.164551,868.624634 
	C696.646301,869.335205 699.730347,869.916748 702.757446,870.714539 
	C705.987793,871.565796 708.568848,873.368286 709.174683,876.879761 
	C709.813171,880.580383 708.689087,883.868958 705.637451,886.150635 
	C700.061401,890.320007 693.420898,891.041565 686.806213,890.995056 
	C684.619324,890.979675 682.212158,890.605103 679.967712,890.121094 
	C670.426392,888.063171 665.660522,874.046387 671.807434,866.331177 
	C672.726501,865.177673 673.754822,864.759766 675.269287,865.080200 
	C681.080872,866.309753 686.915649,867.429932 693.164551,868.624634 
z"/>
<path fill="#000000" opacity="1.000000" stroke="none" 
	d="
M692.590088,805.352417 
	C697.685303,809.727478 696.434875,815.677734 697.089355,820.907471 
	C697.571289,824.758667 696.921021,828.886597 696.064209,832.732788 
	C695.177185,836.714478 692.705078,839.342896 688.000366,839.395996 
	C683.607422,839.445435 680.903931,837.387390 679.919739,833.485413 
	C678.069824,826.150574 677.934631,818.700317 680.024353,811.351074 
	C681.752502,805.273438 686.122620,803.122437 692.590088,805.352417 
z"/>
<path fill="#000000" opacity="1.000000" stroke="none" 
	d="
M386.717102,846.183716 
	C387.805450,839.339905 394.826904,833.312561 401.407043,832.963440 
	C403.771484,832.837952 404.282074,834.097961 404.294708,835.985901 
	C404.322510,840.148132 404.357605,844.310852 404.326874,848.472900 
	C404.286438,853.949524 400.938477,857.167603 395.217560,857.306152 
	C390.014832,857.432129 387.214111,854.739014 386.732849,849.110962 
	C386.662170,848.284180 386.715088,847.446899 386.717102,846.183716 
z"/>
</svg>
